<svg width="560" height="420" viewBox="0 0 560 420" fill="none" xmlns="http://www.w3.org/2000/svg">
  <defs>
    <linearGradient id="bg-int" x1="0" y1="0" x2="1" y2="1">
      <stop offset="0" stop-color="#fdf2f8" />
      <stop offset="1" stop-color="#eff6ff" />
    </linearGradient>
  </defs>
  <rect width="560" height="420" rx="40" fill="url(#bg-int)" />
  <rect x="92" y="84" width="376" height="252" rx="28" fill="#fff" opacity="0.97" />
  <rect x="128" y="122" width="312" height="48" rx="24" fill="#f8fafc" />
  <rect x="152" y="138" width="112" height="16" rx="8" fill="#db2777" opacity="0.3" />
  <rect x="280" y="138" width="132" height="16" rx="8" fill="#2563eb" opacity="0.3" />
  <rect x="128" y="194" width="312" height="120" rx="20" fill="#f8fafc" />
  <circle cx="188" cy="248" r="44" fill="#6366f1" opacity="0.18" />
  <path d="M172 248l16 16 26-34" stroke="#4338ca" stroke-width="4" stroke-linecap="round" stroke-linejoin="round" />
  <rect x="240" y="216" width="176" height="16" rx="8" fill="#bfdbfe" />
  <rect x="240" y="244" width="148" height="12" rx="6" fill="#cbd5f5" />
  <rect x="240" y="270" width="172" height="12" rx="6" fill="#dbeafe" />
  <rect x="188" y="316" width="184" height="12" rx="6" fill="#cbd5f5" />
  <circle cx="116" cy="108" r="20" fill="#60a5fa" opacity="0.25" />
  <circle cx="460" cy="320" r="32" fill="#f472b6" opacity="0.2" />
</svg>
