<svg xmlns="http://www.w3.org/2000/svg" viewBox="0 0 640 480">
  <defs>
    <linearGradient id="gradCom" x1="0%" y1="0%" x2="100%" y2="100%">
      <stop offset="0%" stop-color="#00e0ff" stop-opacity="0.85" />
      <stop offset="100%" stop-color="#ff4d91" stop-opacity="0.9" />
    </linearGradient>
  </defs>
  <rect width="640" height="480" fill="#0b0f16" />
  <g opacity="0.6">
    <circle cx="200" cy="140" r="120" fill="url(#gradCom)" />
    <circle cx="480" cy="320" r="170" fill="url(#gradCom)" fill-opacity="0.75" />
    <circle cx="160" cy="360" r="150" fill="url(#gradCom)" fill-opacity="0.55" />
  </g>
  <g fill="none" stroke="#0b0f16" stroke-width="16" stroke-linecap="round" stroke-linejoin="round">
    <path d="M200 224c0-55 45-100 100-100s100 45 100 100-45 100-100 100-100-45-100-100z" fill="#111b2a" opacity="0.8" />
    <path d="M160 312c-40 16-72 56-72 100" opacity="0.8" />
    <path d="M480 312c40 16 72 56 72 100" opacity="0.8" />
    <path d="M260 208c0-22 18-40 40-40s40 18 40 40" />
    <path d="M220 260c22-20 56-32 80-32s58 12 80 32" />
  </g>
  <g fill="#ffffff" font-family="'Montserrat Alternates', 'Montserrat', sans-serif" font-size="48" font-weight="600">
    <text x="60" y="440" fill-opacity="0.7">Community</text>
  </g>
</svg>
