<svg width="560" height="420" viewBox="0 0 560 420" fill="none" xmlns="http://www.w3.org/2000/svg">
  <defs>
    <linearGradient id="bg-ex" x1="0" y1="0" x2="1" y2="1">
      <stop offset="0" stop-color="#f5f3ff" />
      <stop offset="1" stop-color="#e0f2fe" />
    </linearGradient>
  </defs>
  <rect width="560" height="420" rx="40" fill="url(#bg-ex)" />
  <rect x="88" y="76" width="384" height="268" rx="28" fill="#fff" opacity="0.97" />
  <rect x="120" y="118" width="320" height="24" rx="12" fill="#cbd5f5" />
  <rect x="120" y="156" width="320" height="160" rx="20" fill="#f8fafc" />
  <rect x="140" y="176" width="120" height="120" rx="20" fill="#6366f1" opacity="0.18" />
  <rect x="280" y="176" width="140" height="72" rx="20" fill="#38bdf8" opacity="0.16" />
  <rect x="280" y="260" width="140" height="24" rx="12" fill="#bfdbfe" />
  <path d="M164 216h72M200 180v72" stroke="#4338ca" stroke-width="4" stroke-linecap="round" />
  <path d="M304 196h72" stroke="#2563eb" stroke-width="4" stroke-linecap="round" />
  <path d="M304 220h56" stroke="#2563eb" stroke-width="4" stroke-linecap="round" />
  <rect x="196" y="324" width="168" height="12" rx="6" fill="#cbd5f5" />
  <circle cx="112" cy="102" r="22" fill="#6366f1" opacity="0.22" />
  <circle cx="456" cy="320" r="28" fill="#2563eb" opacity="0.18" />
</svg>
